<?xml version="1.0" encoding="UTF-8"?>
<svg xmlns="http://www.w3.org/2000/svg" xmlns:xlink="http://www.w3.org/1999/xlink" width="82px" height="112px" viewBox="0 0 82 112" version="1.1">
<g id="surface1">
<path style=" stroke:none;fill-rule:nonzero;fill:rgb(40%,18.039216%,53.333333%);fill-opacity:1;" d="M 41.386719 75.328125 L 42.773438 73.949219 C 42.308594 72.429688 42.6875 70.714844 43.90625 69.53125 C 44.726562 68.738281 45.78125 68.328125 46.835938 68.300781 C 47.523438 68.214844 48.230469 68.296875 48.882812 68.535156 L 45.730469 71.59375 L 48.097656 74.007812 L 51.246094 70.953125 C 51.46875 71.621094 51.527344 72.324219 51.421875 73.007812 C 51.363281 74.0625 50.921875 75.09375 50.101562 75.886719 C 48.878906 77.070312 47.152344 77.402344 45.640625 76.894531 L 44.191406 78.34375 L 39.785156 82.734375 L 38.191406 84.320312 C 38.40625 85.433594 38.078125 86.632812 37.214844 87.496094 C 35.820312 88.882812 33.566406 88.882812 32.171875 87.496094 C 30.78125 86.105469 30.78125 83.859375 32.171875 82.472656 C 33.003906 81.640625 34.136719 81.320312 35.214844 81.480469 L 36.980469 79.71875 Z M 41.386719 75.328125 "/>
<path style=" stroke:none;fill-rule:nonzero;fill:rgb(40%,18.039216%,53.333333%);fill-opacity:1;" d="M 36.988281 79.71875 L 32.121094 74.492188 C 32.03125 74.410156 31.960938 74.3125 31.925781 74.1875 L 30.636719 69.109375 C 30.578125 68.890625 30.644531 68.667969 30.800781 68.511719 L 30.808594 68.507812 C 30.976562 68.363281 31.203125 68.3125 31.417969 68.382812 L 36.398438 70.050781 C 36.519531 70.09375 36.613281 70.175781 36.6875 70.269531 L 41.394531 75.328125 L 44.195312 78.34375 L 49.183594 83.707031 C 49.789062 84.359375 49.773438 85.355469 49.144531 85.941406 L 46.863281 88.046875 C 46.234375 88.636719 45.226562 88.578125 44.617188 87.925781 L 39.789062 82.734375 Z M 36.988281 79.71875 "/>
<path style=" stroke:none;fill-rule:nonzero;fill:rgb(40%,18.039216%,53.333333%);fill-opacity:1;" d="M 57.636719 72.476562 C 56.902344 72.476562 56.308594 71.886719 56.308594 71.15625 C 56.308594 70.425781 56.902344 69.835938 57.636719 69.835938 C 58.367188 69.835938 58.960938 70.425781 58.960938 71.15625 C 58.960938 71.886719 58.367188 72.476562 57.636719 72.476562 "/>
<path style=" stroke:none;fill-rule:nonzero;fill:rgb(40%,18.039216%,53.333333%);fill-opacity:1;" d="M 54.058594 65.957031 C 53.328125 65.957031 52.734375 65.367188 52.734375 64.636719 C 52.734375 63.90625 53.328125 63.316406 54.058594 63.316406 C 54.789062 63.316406 55.386719 63.90625 55.386719 64.636719 C 55.386719 65.367188 54.789062 65.957031 54.058594 65.957031 "/>
<path style=" stroke:none;fill-rule:nonzero;fill:rgb(40%,18.039216%,53.333333%);fill-opacity:1;" d="M 28.71875 65.429688 C 27.988281 65.429688 27.394531 64.839844 27.394531 64.109375 C 27.394531 63.378906 27.988281 62.789062 28.71875 62.789062 C 29.453125 62.789062 30.046875 63.378906 30.046875 64.109375 C 30.046875 64.839844 29.453125 65.429688 28.71875 65.429688 "/>
<path style=" stroke:none;fill-rule:nonzero;fill:rgb(40%,18.039216%,53.333333%);fill-opacity:1;" d="M 24.425781 69.179688 C 25.15625 69.179688 25.75 69.769531 25.75 70.5 C 25.75 71.230469 25.15625 71.824219 24.425781 71.824219 C 23.695312 71.824219 23.097656 71.230469 23.097656 70.5 C 23.097656 69.769531 23.695312 69.179688 24.425781 69.179688 "/>
<path style=" stroke:none;fill-rule:nonzero;fill:rgb(40%,18.039216%,53.333333%);fill-opacity:1;" d="M 25.523438 80.507812 C 25.3125 80.542969 25.097656 80.550781 24.886719 80.519531 L 24.421875 81.265625 L 23.734375 81 L 23.917969 80.136719 C 23.738281 80.011719 23.585938 79.863281 23.457031 79.695312 L 22.59375 79.894531 L 22.300781 79.21875 L 23.046875 78.738281 C 23.011719 78.53125 23.003906 78.320312 23.035156 78.101562 L 22.273438 77.652344 L 22.546875 76.964844 L 23.417969 77.144531 C 23.542969 76.96875 23.695312 76.8125 23.863281 76.683594 L 23.644531 75.824219 L 24.324219 75.535156 L 24.816406 76.273438 C 25.023438 76.242188 25.234375 76.238281 25.449219 76.265625 L 25.910156 75.5 L 26.597656 75.769531 L 26.414062 76.644531 C 26.589844 76.769531 26.746094 76.917969 26.875 77.085938 L 27.738281 76.863281 L 28.035156 77.542969 L 27.289062 78.03125 C 27.324219 78.242188 27.328125 78.453125 27.304688 78.667969 L 28.058594 79.128906 L 27.789062 79.820312 L 26.921875 79.632812 C 26.796875 79.8125 26.648438 79.964844 26.480469 80.097656 L 26.683594 80.953125 L 26.003906 81.246094 Z M 25.523438 80.507812 "/>
<path style=" stroke:none;fill-rule:nonzero;fill:rgb(40%,18.039216%,53.333333%);fill-opacity:1;" d="M 27.394531 88.074219 C 26.664062 88.074219 26.070312 87.484375 26.070312 86.753906 C 26.070312 86.023438 26.664062 85.433594 27.394531 85.433594 C 28.128906 85.433594 28.71875 86.023438 28.71875 86.753906 C 28.71875 87.484375 28.128906 88.074219 27.394531 88.074219 "/>
<path style=" stroke:none;fill-rule:nonzero;fill:rgb(40%,18.039216%,53.333333%);fill-opacity:1;" d="M 32.09375 94.085938 C 31.363281 94.085938 30.765625 93.496094 30.765625 92.765625 C 30.765625 92.035156 31.363281 91.441406 32.09375 91.441406 C 32.824219 91.441406 33.417969 92.035156 33.417969 92.765625 C 33.417969 93.496094 32.824219 94.085938 32.09375 94.085938 "/>
<path style=" stroke:none;fill-rule:nonzero;fill:rgb(40%,18.039216%,53.333333%);fill-opacity:1;" d="M 19.269531 30.53125 C 19.113281 29.539062 19.359375 28.578125 19.871094 27.792969 L 16.894531 24.828125 C 15.757812 26.214844 15.070312 27.988281 15.070312 29.917969 C 15.070312 31.847656 15.757812 33.621094 16.898438 35.011719 L 19.863281 32.054688 C 19.570312 31.601562 19.359375 31.09375 19.269531 30.53125 "/>
<path style=" stroke:none;fill-rule:nonzero;fill:rgb(40%,18.039216%,53.333333%);fill-opacity:1;" d="M 28.261719 36.15625 L 25.292969 33.199219 C 24.835938 33.492188 24.320312 33.699219 23.765625 33.789062 C 23.558594 33.820312 23.351562 33.839844 23.144531 33.839844 C 22.355469 33.839844 21.625 33.601562 21.007812 33.203125 L 18.042969 36.15625 C 19.4375 37.292969 21.214844 37.976562 23.152344 37.976562 C 25.089844 37.976562 26.867188 37.292969 28.261719 36.15625 "/>
<path style=" stroke:none;fill-rule:nonzero;fill:rgb(40%,18.039216%,53.333333%);fill-opacity:1;" d="M 58.890625 21.863281 C 56.433594 21.863281 54.234375 22.964844 52.746094 24.695312 L 65.03125 24.695312 C 63.550781 22.964844 61.347656 21.863281 58.890625 21.863281 "/>
<path style=" stroke:none;fill-rule:nonzero;fill:rgb(40%,18.039216%,53.333333%);fill-opacity:1;" d="M 22.539062 26.046875 C 23.558594 25.886719 24.515625 26.128906 25.292969 26.636719 L 28.261719 23.683594 C 26.867188 22.546875 25.089844 21.863281 23.152344 21.863281 C 21.214844 21.863281 19.4375 22.546875 18.042969 23.683594 L 21.011719 26.640625 C 21.460938 26.347656 21.972656 26.136719 22.539062 26.046875 "/>
<path style=" stroke:none;fill-rule:nonzero;fill:rgb(40%,18.039216%,53.333333%);fill-opacity:1;" d="M 27.035156 29.308594 C 27.1875 30.269531 26.96875 31.234375 26.433594 32.046875 L 29.410156 35.011719 C 30.550781 33.621094 31.234375 31.847656 31.234375 29.917969 C 31.234375 27.988281 30.550781 26.214844 29.410156 24.828125 L 26.441406 27.78125 C 26.734375 28.230469 26.945312 28.746094 27.035156 29.308594 "/>
<path style=" stroke:none;fill-rule:nonzero;fill:rgb(40%,18.039216%,53.333333%);fill-opacity:1;" d="M 23.152344 27.617188 C 23.035156 27.617188 22.914062 27.625 22.792969 27.644531 C 21.535156 27.84375 20.675781 29.027344 20.875 30.28125 C 21.066406 31.507812 22.25 32.394531 23.511719 32.191406 C 24.121094 32.09375 24.660156 31.765625 25.019531 31.265625 C 25.382812 30.769531 25.527344 30.164062 25.429688 29.5625 C 25.253906 28.449219 24.277344 27.617188 23.152344 27.617188 "/>
<path style=" stroke:none;fill-rule:nonzero;fill:rgb(40%,18.039216%,53.333333%);fill-opacity:1;" d="M 51.675781 26.308594 C 51.242188 27.167969 50.949219 28.113281 50.847656 29.113281 L 66.933594 29.113281 C 66.832031 28.113281 66.539062 27.167969 66.105469 26.308594 Z M 51.675781 26.308594 "/>
<path style=" stroke:none;fill-rule:nonzero;fill:rgb(40%,18.039216%,53.333333%);fill-opacity:1;" d="M 58.890625 37.976562 C 61.347656 37.976562 63.550781 36.875 65.03125 35.140625 L 52.75 35.140625 C 54.234375 36.875 56.433594 37.976562 58.890625 37.976562 "/>
<path style=" stroke:none;fill-rule:nonzero;fill:rgb(39.607843%,18.039216%,52.941176%);fill-opacity:1;" d="M 67.371094 91.851562 C 67.660156 91.53125 67.941406 91.207031 68.222656 90.882812 C 67.941406 91.167969 67.644531 91.4375 67.328125 91.679688 Z M 67.371094 91.851562 "/>
<path style=" stroke:none;fill-rule:nonzero;fill:rgb(39.607843%,18.039216%,52.941176%);fill-opacity:1;" d="M 68.28125 90.8125 C 68.535156 90.519531 68.78125 90.226562 69.027344 89.929688 L 69.019531 89.929688 C 68.792969 90.242188 68.546875 90.535156 68.28125 90.8125 "/>
<path style=" stroke:none;fill-rule:nonzero;fill:rgb(40%,18.039216%,53.333333%);fill-opacity:1;" d="M 51.675781 33.53125 L 66.105469 33.53125 C 66.539062 32.671875 66.832031 31.726562 66.933594 30.726562 L 50.851562 30.726562 C 50.949219 31.726562 51.242188 32.671875 51.675781 33.53125 "/>
<path style=" stroke:none;fill-rule:nonzero;fill:rgb(40%,18.039216%,53.333333%);fill-opacity:1;" d="M 60.824219 76.882812 L 59.828125 75.355469 C 58.710938 75.625 57.632812 76.089844 56.640625 76.746094 L 57.09375 78.511719 C 56.453125 79.003906 55.882812 79.589844 55.402344 80.261719 L 53.617188 79.886719 C 53 80.898438 52.578125 81.992188 52.351562 83.117188 L 53.921875 84.046875 C 53.816406 84.863281 53.832031 85.683594 53.972656 86.476562 L 52.441406 87.46875 C 52.710938 88.585938 53.175781 89.660156 53.835938 90.644531 L 55.605469 90.195312 C 55.886719 90.558594 56.371094 91.070312 56.882812 91.503906 C 57.644531 90.371094 58.367188 89.199219 59.027344 88 C 58.324219 87.234375 57.882812 86.21875 57.882812 85.09375 C 57.882812 82.769531 59.722656 80.894531 62.035156 80.800781 C 62.394531 79.484375 62.652344 78.15625 62.785156 76.820312 C 62.203125 76.8125 61.25 76.808594 60.824219 76.882812 "/>
<path style=" stroke:none;fill-rule:nonzero;fill:rgb(39.607843%,18.039216%,52.941176%);fill-opacity:1;" d="M 33.878906 101.964844 C 33.898438 101.941406 33.921875 101.917969 33.941406 101.894531 L 33.9375 101.886719 C 33.90625 101.929688 33.878906 101.964844 33.878906 101.964844 "/>
<path style=" stroke:none;fill-rule:nonzero;fill:rgb(39.607843%,18.039216%,52.941176%);fill-opacity:1;" d="M 35.765625 100.113281 C 35.71875 100.152344 35.128906 100.59375 35.730469 100.144531 C 35.742188 100.136719 35.753906 100.125 35.765625 100.117188 Z M 35.765625 100.113281 "/>
<path style=" stroke:none;fill-rule:nonzero;fill:rgb(39.607843%,18.039216%,52.941176%);fill-opacity:1;" d="M 33.925781 101.878906 L 33.9375 101.886719 C 34.039062 101.742188 34.210938 101.496094 33.925781 101.878906 "/>
<path style=" stroke:none;fill-rule:nonzero;fill:rgb(40%,18.039216%,53.333333%);fill-opacity:1;" d="M 46.484375 100.265625 C 46.484375 100.265625 47.109375 100.707031 46.445312 100.222656 L 47.308594 96.589844 L 44.449219 95.382812 L 42.457031 98.527344 C 41.582031 98.390625 40.691406 98.375 39.796875 98.507812 L 37.820312 95.324219 L 34.953125 96.480469 L 35.765625 100.113281 C 35.769531 100.113281 35.773438 100.109375 35.773438 100.109375 C 35.773438 100.109375 35.769531 100.113281 35.765625 100.117188 C 35.75 100.128906 35.746094 100.136719 35.730469 100.144531 C 35.058594 100.636719 34.460938 101.222656 33.941406 101.894531 L 36.621094 104.308594 C 37.589844 102.921875 39.199219 102.011719 41.027344 102.011719 C 42.855469 102.011719 44.460938 102.917969 45.429688 104.300781 L 48.101562 101.890625 C 47.621094 101.285156 47.089844 100.738281 46.484375 100.265625 "/>
<path style=" stroke:none;fill-rule:nonzero;fill:rgb(39.607843%,18.039216%,52.941176%);fill-opacity:1;" d="M 49.917969 106.191406 C 50.027344 106.960938 49.917969 106.191406 49.917969 106.191406 Z M 49.917969 106.191406 "/>
<path style=" stroke:none;fill-rule:nonzero;fill:rgb(40%,18.039216%,53.333333%);fill-opacity:1;" d="M 73.992188 33.277344 C 73.90625 33.753906 73.4375 34.074219 72.953125 33.992188 L 71.554688 33.746094 C 71.449219 33.726562 71.351562 33.683594 71.257812 33.628906 C 70.992188 34.484375 70.632812 35.324219 70.167969 36.132812 C 70.277344 36.160156 70.378906 36.203125 70.472656 36.273438 L 71.621094 37.09375 C 72.019531 37.378906 72.109375 37.933594 71.820312 38.324219 L 70.964844 39.492188 C 70.675781 39.882812 70.113281 39.96875 69.71875 39.683594 L 68.566406 38.859375 C 68.472656 38.789062 68.390625 38.699219 68.332031 38.605469 C 67.695312 39.277344 66.988281 39.871094 66.238281 40.382812 C 66.332031 40.453125 66.414062 40.546875 66.472656 40.660156 L 67.144531 41.898438 C 67.371094 42.324219 67.203125 42.863281 66.773438 43.089844 L 65.488281 43.765625 C 65.054688 43.992188 64.511719 43.824219 64.28125 43.398438 L 63.613281 42.15625 C 63.554688 42.042969 63.519531 41.925781 63.515625 41.808594 C 62.648438 42.132812 61.746094 42.367188 60.832031 42.5 C 60.886719 42.613281 60.925781 42.734375 60.929688 42.867188 L 60.984375 44.277344 C 61 44.757812 60.613281 45.164062 60.121094 45.179688 L 58.667969 45.238281 C 58.179688 45.253906 57.765625 44.871094 57.746094 44.382812 L 57.695312 42.980469 C 57.691406 42.84375 57.726562 42.714844 57.78125 42.597656 C 56.859375 42.519531 55.941406 42.351562 55.042969 42.070312 C 55.046875 42.199219 55.03125 42.332031 54.972656 42.457031 L 54.394531 43.742188 C 54.191406 44.183594 53.660156 44.382812 53.214844 44.1875 L 51.882812 43.601562 C 51.4375 43.402344 51.234375 42.882812 51.429688 42.4375 L 52.011719 41.15625 C 52.070312 41.027344 52.160156 40.925781 52.261719 40.839844 C 51.445312 40.359375 50.703125 39.800781 50.035156 39.179688 C 49.980469 39.300781 49.90625 39.417969 49.800781 39.507812 L 48.707031 40.410156 C 48.332031 40.71875 47.765625 40.671875 47.449219 40.300781 L 46.511719 39.199219 C 46.199219 38.824219 46.25 38.273438 46.625 37.957031 L 47.714844 37.054688 C 47.824219 36.964844 47.949219 36.914062 48.082031 36.882812 C 47.566406 36.109375 47.132812 35.289062 46.804688 34.433594 C 46.703125 34.511719 46.589844 34.578125 46.453125 34.613281 L 45.070312 34.953125 C 44.597656 35.070312 44.109375 34.777344 43.992188 34.308594 L 43.640625 32.914062 C 43.523438 32.445312 43.8125 31.964844 44.292969 31.847656 L 45.671875 31.507812 C 45.800781 31.472656 45.9375 31.480469 46.066406 31.507812 C 45.945312 30.597656 45.921875 29.679688 46.003906 28.761719 C 45.878906 28.789062 45.753906 28.796875 45.621094 28.769531 L 44.234375 28.476562 C 43.75 28.375 43.441406 27.902344 43.542969 27.429688 L 43.84375 26.023438 C 43.945312 25.546875 44.425781 25.246094 44.902344 25.34375 L 46.296875 25.636719 C 46.417969 25.660156 46.527344 25.707031 46.621094 25.777344 C 46.890625 24.988281 47.242188 24.214844 47.675781 23.46875 C 47.710938 23.410156 47.746094 23.363281 47.777344 23.308594 C 47.671875 23.277344 47.566406 23.226562 47.46875 23.152344 L 46.347656 22.289062 C 45.960938 21.992188 45.894531 21.429688 46.195312 21.050781 L 47.09375 19.917969 C 47.390625 19.535156 47.957031 19.46875 48.339844 19.765625 L 49.464844 20.628906 C 49.554688 20.703125 49.628906 20.789062 49.6875 20.886719 C 50.339844 20.230469 51.050781 19.652344 51.816406 19.160156 C 51.738281 19.085938 51.667969 19.007812 51.617188 18.90625 L 50.992188 17.644531 C 50.78125 17.210938 50.964844 16.675781 51.40625 16.464844 L 52.714844 15.832031 C 53.15625 15.621094 53.691406 15.804688 53.90625 16.238281 L 54.53125 17.503906 C 54.578125 17.597656 54.601562 17.699219 54.609375 17.800781 C 55.476562 17.5 56.378906 17.296875 57.296875 17.183594 C 57.261719 17.09375 57.234375 16.992188 57.234375 16.886719 L 57.234375 15.484375 C 57.234375 14.996094 57.636719 14.601562 58.128906 14.601562 L 59.582031 14.601562 C 60.074219 14.601562 60.472656 14.996094 60.472656 15.484375 L 60.472656 16.886719 C 60.472656 16.984375 60.449219 17.074219 60.417969 17.160156 C 61.027344 17.230469 61.636719 17.355469 62.234375 17.519531 C 62.242188 17.421875 62.25 17.328125 62.292969 17.238281 L 62.824219 15.929688 C 63.007812 15.484375 63.53125 15.265625 63.988281 15.449219 L 65.339844 15.984375 C 65.789062 16.167969 66.011719 16.679688 65.828125 17.132812 L 65.292969 18.4375 C 65.257812 18.523438 65.199219 18.597656 65.136719 18.667969 C 65.214844 18.710938 65.292969 18.742188 65.367188 18.785156 C 66.105469 19.207031 66.785156 19.695312 67.402344 20.226562 C 67.445312 20.148438 67.496094 20.070312 67.566406 20.003906 L 68.625 19.066406 C 68.988281 18.742188 69.558594 18.773438 69.878906 19.132812 L 70.863281 20.203125 C 71.1875 20.5625 71.15625 21.121094 70.792969 21.445312 L 69.734375 22.386719 C 69.65625 22.449219 69.574219 22.492188 69.484375 22.53125 C 70.019531 23.28125 70.464844 24.078125 70.816406 24.914062 C 70.898438 24.863281 70.980469 24.808594 71.078125 24.78125 L 72.449219 24.390625 C 72.917969 24.261719 73.414062 24.535156 73.550781 25 L 73.953125 26.382812 C 74.089844 26.84375 73.808594 27.335938 73.339844 27.46875 L 71.972656 27.859375 C 71.871094 27.886719 71.773438 27.886719 71.675781 27.882812 C 71.820312 28.777344 71.863281 29.6875 71.808594 30.601562 C 71.910156 30.582031 72.011719 30.578125 72.121094 30.59375 L 73.523438 30.835938 C 74 30.925781 74.328125 31.382812 74.242188 31.863281 Z M 62.785156 76.820312 C 62.652344 78.15625 62.394531 79.484375 62.035156 80.800781 C 61.351562 83.269531 60.304688 85.691406 59.027344 88 C 58.367188 89.199219 57.644531 90.367188 56.882812 91.503906 C 54.253906 95.40625 51.144531 98.886719 48.378906 101.640625 L 48.101562 101.890625 L 45.429688 104.300781 L 45.414062 104.316406 C 42.859375 106.628906 41.0625 107.976562 41.023438 108.011719 L 41.03125 108.015625 L 41.015625 108.015625 L 41.023438 108.011719 C 40.980469 107.976562 39.183594 106.628906 36.628906 104.316406 L 36.621094 104.308594 L 33.941406 101.894531 C 33.921875 101.917969 33.898438 101.941406 33.878906 101.964844 C 33.878906 101.964844 33.90625 101.929688 33.9375 101.886719 L 33.925781 101.878906 L 33.664062 101.640625 C 27.3125 95.316406 19.160156 85.179688 19.160156 74.828125 C 19.160156 68.714844 22.90625 62.425781 29.066406 58.75 C 29.375 59.53125 29.753906 60.292969 30.222656 61.011719 L 30.226562 61.011719 L 32.496094 60.46875 C 33.117188 61.292969 33.859375 62.03125 34.714844 62.652344 L 34.203125 64.921875 L 34.203125 64.925781 C 34.320312 64.996094 34.441406 65.054688 34.558594 65.125 C 34.777344 65.25 34.992188 65.378906 35.214844 65.492188 C 35.265625 65.519531 35.320312 65.539062 35.375 65.5625 C 35.671875 65.710938 35.972656 65.847656 36.28125 65.96875 L 36.285156 65.96875 C 36.953125 66.234375 37.632812 66.441406 38.328125 66.589844 L 39.546875 64.605469 C 40.59375 64.753906 41.644531 64.738281 42.667969 64.582031 L 43.914062 66.550781 C 45.347656 66.222656 46.738281 65.644531 48.011719 64.824219 L 48.011719 64.820312 L 47.464844 62.558594 C 48.292969 61.9375 49.035156 61.195312 49.65625 60.34375 L 51.933594 60.855469 L 51.9375 60.855469 C 52.007812 60.742188 52.066406 60.621094 52.132812 60.503906 C 52.261719 60.285156 52.394531 60.070312 52.507812 59.847656 C 52.53125 59.796875 52.550781 59.742188 52.574219 59.691406 C 52.722656 59.394531 52.863281 59.089844 52.984375 58.785156 C 52.984375 58.78125 52.988281 58.777344 52.988281 58.777344 C 52.988281 58.769531 52.992188 58.765625 52.992188 58.761719 C 59.144531 62.4375 62.882812 68.71875 62.882812 74.828125 C 62.882812 75.492188 62.847656 76.15625 62.785156 76.820312 M 49.917969 106.191406 C 49.917969 106.191406 50.027344 106.960938 49.917969 106.191406 M 17.480469 44.1875 L 16.144531 43.601562 C 15.703125 43.40625 15.496094 42.882812 15.695312 42.4375 L 16.277344 41.160156 C 16.332031 41.027344 16.425781 40.925781 16.527344 40.84375 C 15.707031 40.359375 14.964844 39.800781 14.300781 39.179688 C 14.246094 39.304688 14.171875 39.417969 14.0625 39.507812 L 12.972656 40.410156 C 12.59375 40.71875 12.03125 40.671875 11.714844 40.300781 L 10.777344 39.199219 C 10.460938 38.824219 10.511719 38.273438 10.886719 37.957031 L 11.976562 37.054688 C 12.085938 36.964844 12.214844 36.914062 12.34375 36.882812 C 11.832031 36.109375 11.398438 35.289062 11.066406 34.433594 C 10.964844 34.515625 10.851562 34.582031 10.71875 34.613281 L 9.335938 34.957031 C 8.859375 35.074219 8.375 34.78125 8.253906 34.308594 L 7.902344 32.917969 C 7.789062 32.445312 8.078125 31.964844 8.554688 31.847656 L 9.933594 31.507812 C 10.066406 31.472656 10.199219 31.480469 10.328125 31.507812 C 10.207031 30.601562 10.183594 29.679688 10.265625 28.761719 C 10.140625 28.789062 10.015625 28.796875 9.882812 28.769531 L 8.496094 28.476562 C 8.011719 28.378906 7.707031 27.902344 7.808594 27.429688 L 8.109375 26.023438 C 8.207031 25.550781 8.6875 25.246094 9.167969 25.34375 L 10.5625 25.636719 C 10.679688 25.660156 10.789062 25.710938 10.886719 25.777344 C 11.152344 24.988281 11.503906 24.214844 11.941406 23.46875 C 11.972656 23.414062 12.011719 23.363281 12.042969 23.308594 C 11.933594 23.277344 11.828125 23.230469 11.734375 23.152344 L 10.609375 22.289062 C 10.222656 21.992188 10.15625 21.429688 10.457031 21.050781 L 11.355469 19.917969 C 11.65625 19.535156 12.21875 19.46875 12.605469 19.765625 L 13.730469 20.632812 C 13.820312 20.703125 13.894531 20.792969 13.949219 20.886719 C 14.601562 20.230469 15.316406 19.652344 16.082031 19.164062 C 16.003906 19.089844 15.929688 19.007812 15.882812 18.90625 L 15.257812 17.644531 C 15.042969 17.210938 15.230469 16.679688 15.671875 16.464844 L 16.976562 15.835938 C 17.421875 15.621094 17.957031 15.808594 18.171875 16.238281 L 18.792969 17.503906 C 18.84375 17.597656 18.863281 17.703125 18.871094 17.804688 C 19.742188 17.5 20.644531 17.296875 21.558594 17.183594 C 21.523438 17.09375 21.496094 16.992188 21.496094 16.886719 L 21.496094 15.484375 C 21.496094 14.996094 21.902344 14.601562 22.390625 14.601562 L 23.84375 14.601562 C 24.335938 14.601562 24.738281 14.996094 24.738281 15.484375 L 24.738281 16.886719 C 24.738281 16.984375 24.710938 17.074219 24.679688 17.160156 C 25.289062 17.230469 25.898438 17.359375 26.5 17.519531 C 26.507812 17.425781 26.515625 17.332031 26.554688 17.238281 L 27.085938 15.933594 C 27.269531 15.484375 27.796875 15.265625 28.25 15.449219 L 29.601562 15.988281 C 30.050781 16.167969 30.273438 16.683594 30.089844 17.132812 L 29.554688 18.4375 C 29.519531 18.527344 29.460938 18.597656 29.398438 18.667969 C 29.476562 18.710938 29.554688 18.742188 29.628906 18.785156 C 30.371094 19.207031 31.046875 19.695312 31.667969 20.226562 C 31.707031 20.148438 31.757812 20.070312 31.832031 20.007812 L 32.886719 19.066406 C 33.25 18.742188 33.820312 18.773438 34.144531 19.132812 L 35.125 20.203125 C 35.453125 20.5625 35.417969 21.121094 35.054688 21.445312 L 33.996094 22.386719 C 33.921875 22.449219 33.839844 22.492188 33.75 22.53125 C 34.28125 23.28125 34.726562 24.078125 35.082031 24.917969 C 35.160156 24.863281 35.242188 24.8125 35.339844 24.785156 L 36.710938 24.394531 C 37.179688 24.261719 37.675781 24.535156 37.8125 25 L 38.21875 26.382812 C 38.351562 26.84375 38.070312 27.335938 37.605469 27.472656 L 36.234375 27.859375 C 36.136719 27.886719 36.039062 27.886719 35.941406 27.882812 C 36.085938 28.777344 36.125 29.6875 36.070312 30.605469 C 36.171875 30.582031 36.273438 30.578125 36.382812 30.59375 L 37.785156 30.839844 C 38.265625 30.925781 38.589844 31.386719 38.503906 31.863281 L 38.257812 33.28125 C 38.167969 33.753906 37.699219 34.074219 37.214844 33.992188 L 35.816406 33.746094 C 35.710938 33.730469 35.613281 33.683594 35.519531 33.632812 C 35.253906 34.484375 34.894531 35.324219 34.433594 36.136719 C 34.539062 36.160156 34.640625 36.203125 34.734375 36.273438 L 35.886719 37.09375 C 36.28125 37.378906 36.371094 37.933594 36.085938 38.324219 L 35.226562 39.492188 C 34.941406 39.882812 34.375 39.96875 33.980469 39.683594 L 32.832031 38.859375 C 32.730469 38.789062 32.65625 38.703125 32.59375 38.605469 C 31.957031 39.277344 31.253906 39.871094 30.503906 40.382812 C 30.59375 40.453125 30.675781 40.546875 30.734375 40.660156 L 31.40625 41.898438 C 31.632812 42.324219 31.464844 42.863281 31.035156 43.089844 L 29.75 43.765625 C 29.316406 43.992188 28.777344 43.824219 28.546875 43.398438 L 27.875 42.15625 C 27.816406 42.046875 27.785156 41.925781 27.777344 41.808594 C 26.910156 42.132812 26.011719 42.367188 25.09375 42.503906 C 25.152344 42.617188 25.191406 42.734375 25.195312 42.871094 L 25.246094 44.277344 C 25.265625 44.757812 24.875 45.167969 24.382812 45.183594 L 22.933594 45.238281 C 22.441406 45.253906 22.027344 44.871094 22.007812 44.382812 L 21.957031 42.980469 C 21.953125 42.84375 21.988281 42.714844 22.042969 42.597656 C 21.121094 42.519531 20.207031 42.351562 19.304688 42.070312 C 19.308594 42.199219 19.296875 42.332031 19.238281 42.457031 L 18.65625 43.742188 C 18.457031 44.183594 17.925781 44.382812 17.480469 44.1875 M 43.863281 49.425781 C 42.417969 50.96875 41.015625 52.007812 41.015625 52.007812 C 41.015625 52.007812 39.621094 50.972656 38.179688 49.433594 C 36.628906 47.773438 35.019531 45.53125 35.019531 43.34375 L 35.886719 42.296875 L 41.023438 36.101562 L 46.164062 42.300781 L 47.023438 43.34375 C 47.023438 45.527344 45.417969 47.765625 43.863281 49.425781 M 45.5625 57.035156 C 44.957031 57.945312 44.0625 58.691406 43.042969 59.097656 C 43.042969 59.09375 43.042969 59.085938 43.039062 59.078125 C 41.6875 59.609375 40.34375 59.609375 39.011719 59.078125 C 39.011719 59.085938 39.007812 59.089844 39.007812 59.097656 C 37.652344 58.554688 36.507812 57.410156 35.964844 56.058594 C 35.972656 56.058594 35.976562 56.054688 35.984375 56.054688 C 35.980469 56.046875 35.980469 56.039062 35.976562 56.03125 C 37.574219 55.695312 39.257812 55.503906 41.023438 55.503906 C 42.789062 55.503906 44.472656 55.695312 46.078125 56.035156 L 46.082031 56.035156 C 46.078125 56.042969 46.078125 56.050781 46.074219 56.058594 C 46.078125 56.0625 46.085938 56.0625 46.089844 56.0625 C 45.957031 56.398438 45.761719 56.738281 45.5625 57.035156 C 45.640625 56.914062 45.492188 57.140625 45.5625 57.035156 M 41.011719 2.273438 C 46.394531 2.273438 51.550781 3.832031 55.949219 6.726562 C 55.578125 6.933594 55.179688 7.125 54.820312 7.339844 C 48.34375 11.210938 43.191406 16.769531 41 23.4375 C 38.808594 16.769531 33.65625 11.210938 27.179688 7.339844 C 26.832031 7.132812 26.449219 6.949219 26.09375 6.75 C 30.503906 3.859375 35.671875 2.273438 41.011719 2.273438 M 75.207031 39.695312 C 76.902344 36.859375 77.894531 33.5625 77.894531 30.03125 C 77.894531 29.980469 77.890625 29.9375 77.890625 29.890625 C 77.910156 11.109375 81.875 0.671875 81.875 0.671875 L 80.953125 0.671875 C 72.902344 0.671875 64.855469 2.433594 58.273438 5.542969 C 53.277344 1.945312 47.296875 0 41.035156 0 C 34.816406 0 28.796875 1.960938 23.800781 5.554688 C 17.210938 2.4375 9.148438 0.671875 1.09375 0.671875 L 0.167969 0.671875 C 0.167969 0.671875 4.136719 11.109375 4.15625 29.890625 C 4.15625 29.9375 4.152344 29.980469 4.152344 30.03125 C 4.152344 33.5625 5.140625 36.859375 6.835938 39.695312 C -9.921875 60.90625 6.253906 89.707031 32.082031 106.800781 C 33.371094 107.65625 34.6875 108.480469 36.023438 109.273438 C 37.660156 110.246094 39.328125 111.171875 41.023438 112.046875 C 42.730469 111.167969 44.398438 110.222656 46.042969 109.242188 C 47.367188 108.457031 48.671875 107.644531 49.949219 106.796875 C 55.3125 103.25 60.261719 99.207031 64.582031 94.820312 C 65.542969 93.847656 66.476562 92.859375 67.371094 91.851562 L 67.328125 91.679688 C 67.644531 91.4375 67.941406 91.167969 68.222656 90.882812 C 68.242188 90.859375 68.261719 90.835938 68.28125 90.8125 C 68.546875 90.535156 68.792969 90.242188 69.019531 89.929688 L 69.027344 89.929688 C 69.898438 88.886719 70.734375 87.828125 71.53125 86.757812 C 82.875 71.53125 86.4375 53.910156 75.207031 39.695312 "/>
</g>
</svg>
