<svg width="870" height="74" viewBox="0 0 870 74" fill="none" xmlns="http://www.w3.org/2000/svg">
<path d="M43.0014 16.0002H45.0014V18.0002H43.0014V16.0002Z" fill="#565656"/>
<path d="M43.0014 19.9998H45.0014V21.9998H43.0014V19.9998Z" fill="#565656"/>
<path d="M43.0014 23.9999H45.0014V25.9999H43.0014V23.9999Z" fill="#565656"/>
<path d="M43.0014 28.0001H45.0014V30.0001H43.0014V28.0001Z" fill="#565656"/>
<path d="M46.9993 16.0002H48.9993V18.0002H46.9993V16.0002Z" fill="#565656"/>
<path d="M54.9996 23.9999H56.9996V25.9999H54.9996V23.9999Z" fill="#565656"/>
<path d="M54.9996 19.9998H56.9996V21.9998H54.9996V19.9998Z" fill="#565656"/>
<path d="M46.9993 19.9998H48.9993V21.9998H46.9993V19.9998Z" fill="#565656"/>
<path d="M54.9996 28.0001H56.9996V30.0001H54.9996V28.0001Z" fill="#565656"/>
<path d="M46.9993 23.9999H48.9993V25.9999H46.9993V23.9999Z" fill="#565656"/>
<path d="M54.9996 31.9998H56.9996V33.9998H54.9996V31.9998Z" fill="#565656"/>
<path d="M46.9993 28.0001H48.9993V30.0001H46.9993V28.0001Z" fill="#565656"/>
<path d="M62 36H61V17C61 16.7348 60.8946 16.4804 60.7071 16.2929C60.5196 16.1054 60.2652 16 60 16H53V13C53 12.7348 52.8946 12.4804 52.7071 12.2929C52.5196 12.1054 52.2652 12 52 12H40C39.7348 12 39.4804 12.1054 39.2929 12.2929C39.1054 12.4804 39 12.7348 39 13V36H38C37.7348 36 37.4804 36.1054 37.2929 36.2929C37.1054 36.4804 37 36.7348 37 37C37 37.2652 37.1054 37.5196 37.2929 37.7071C37.4804 37.8946 37.7348 38 38 38H62C62.2652 38 62.5196 37.8946 62.7071 37.7071C62.8946 37.5196 63 37.2652 63 37C63 36.7348 62.8946 36.4804 62.7071 36.2929C62.5196 36.1054 62.2652 36 62 36ZM41 14H51V33C51 33.2652 51.1054 33.5196 51.2929 33.7071C51.4804 33.8946 51.7348 34 52 34C52.2652 34 52.5196 33.8946 52.7071 33.7071C52.8946 33.5196 53 33.2652 53 33V18H59V36H49V33C49 32.7348 48.8946 32.4804 48.7071 32.2929C48.5196 32.1054 48.2652 32 48 32H44C43.7348 32 43.4804 32.1054 43.2929 32.2929C43.1054 32.4804 43 32.7348 43 33V36H41V14ZM47 36H45V34H47V36Z" fill="#565656"/>
<path d="M25.9417 61L24.9407 58.426H20.8587L19.8837 61H18.5187L22.1847 51.783H23.6537L27.3197 61H25.9417ZM22.8867 53.109L21.3137 57.243H24.4857L22.8867 53.109ZM29.6386 63.47H28.4296V54.747H29.6126V55.722C29.9506 55.098 30.6916 54.604 31.7056 54.604C33.5776 54.604 34.5786 56.047 34.5786 57.867C34.5786 59.726 33.4996 61.169 31.6666 61.169C30.7046 61.169 29.9766 60.714 29.6386 60.155V63.47ZM33.3306 57.867C33.3306 56.619 32.6286 55.683 31.4846 55.683C30.3666 55.683 29.6256 56.619 29.6256 57.867C29.6256 59.154 30.3666 60.077 31.4846 60.077C32.6156 60.077 33.3306 59.154 33.3306 57.867ZM35.7457 59.323C35.7457 58.205 36.5647 57.581 37.6437 57.425L39.3337 57.178C39.7107 57.126 39.8147 56.931 39.8147 56.71C39.8147 56.099 39.4117 55.592 38.4627 55.592C37.6047 55.592 37.1237 56.125 37.0457 56.853L35.8757 56.58C36.0057 55.384 37.0847 54.552 38.4367 54.552C40.3087 54.552 41.0367 55.618 41.0367 56.84V59.973C41.0367 60.519 41.0887 60.844 41.1147 61H39.9187C39.8927 60.844 39.8537 60.61 39.8537 60.155C39.5807 60.597 38.9567 61.195 37.8387 61.195C36.5647 61.195 35.7457 60.311 35.7457 59.323ZM38.0077 60.168C39.0087 60.168 39.8147 59.687 39.8147 58.322V58.036L37.9037 58.322C37.3837 58.4 36.9937 58.699 36.9937 59.258C36.9937 59.726 37.3837 60.168 38.0077 60.168ZM46.4114 54.682V55.982C46.2294 55.956 46.0474 55.943 45.8784 55.943C44.8514 55.943 44.1624 56.489 44.1624 57.867V61H42.9404V54.747H44.1364V55.839C44.5914 54.877 45.3714 54.643 46.0084 54.643C46.1774 54.643 46.3464 54.669 46.4114 54.682ZM49.6819 52.771V54.747H51.0339V55.852H49.6819V59.102C49.6819 59.674 49.9159 59.96 50.5529 59.96C50.7089 59.96 50.9299 59.934 51.0339 59.908V60.948C50.9299 60.987 50.6179 61.065 50.2019 61.065C49.1359 61.065 48.4599 60.415 48.4599 59.284V55.852H47.2639V54.747H47.6019C48.2779 54.747 48.5639 54.331 48.5639 53.785V52.771H49.6819ZM53.747 61H52.538V54.747H53.708V55.579C54.098 54.89 54.878 54.565 55.606 54.565C56.386 54.565 57.14 54.942 57.478 55.748C57.972 54.851 58.778 54.565 59.571 54.565C60.663 54.565 61.729 55.306 61.729 56.944V61H60.52V57.074C60.52 56.255 60.117 55.644 59.194 55.644C58.336 55.644 57.751 56.32 57.751 57.217V61H56.529V57.074C56.529 56.268 56.139 55.644 55.203 55.644C54.332 55.644 53.747 56.294 53.747 57.23V61ZM64.4775 57.23H67.8965C67.8705 56.333 67.2855 55.631 66.1805 55.631C65.1535 55.631 64.5295 56.424 64.4775 57.23ZM68.0785 58.855L69.1315 59.219C68.7805 60.324 67.7795 61.195 66.3235 61.195C64.6465 61.195 63.1775 59.973 63.1775 57.854C63.1775 55.891 64.5945 54.552 66.1675 54.552C68.0915 54.552 69.1705 55.878 69.1705 57.828C69.1705 57.984 69.1575 58.14 69.1445 58.218H64.4385C64.4645 59.336 65.2705 60.116 66.3235 60.116C67.3375 60.116 67.8445 59.557 68.0785 58.855ZM71.9524 57.386V61H70.7304V54.747H71.9264V55.644C72.3814 54.864 73.1224 54.565 73.8504 54.565C75.3454 54.565 76.0864 55.644 76.0864 57.035V61H74.8644V57.243C74.8644 56.372 74.5004 55.67 73.4084 55.67C72.4464 55.67 71.9524 56.437 71.9524 57.386ZM79.6682 52.771V54.747H81.0202V55.852H79.6682V59.102C79.6682 59.674 79.9022 59.96 80.5392 59.96C80.6952 59.96 80.9162 59.934 81.0202 59.908V60.948C80.9162 60.987 80.6042 61.065 80.1882 61.065C79.1222 61.065 78.4462 60.415 78.4462 59.284V55.852H77.2502V54.747H77.5882C78.2642 54.747 78.5502 54.331 78.5502 53.785V52.771H79.6682Z" fill="#565656"/>
<path d="M169.296 38.1237H150.703C149.316 38.1237 148.188 36.9953 148.188 35.6083V22.3735C148.188 21.8903 148.579 21.4985 149.062 21.4985C149.546 21.4985 149.937 21.8903 149.937 22.3735V35.6083C149.937 36.0304 150.281 36.3738 150.703 36.3738H169.296C169.718 36.3738 170.061 36.0304 170.061 35.6083V22.3735C170.061 21.8903 170.453 21.4985 170.936 21.4985C171.42 21.4985 171.811 21.8903 171.811 22.3735V35.6083C171.811 36.9953 170.683 38.1237 169.296 38.1237Z" fill="#C82021"/>
<path d="M173.125 25.4351C172.901 25.4351 172.677 25.3497 172.506 25.1788L161.625 14.2973C160.729 13.4018 159.272 13.4018 158.377 14.2973L147.495 25.1789C147.153 25.5206 146.599 25.5206 146.258 25.1789C145.916 24.8372 145.916 24.2832 146.258 23.9415L157.139 13.0599C158.717 11.4821 161.284 11.4821 162.862 13.0599L173.744 23.9415C174.085 24.2832 174.085 24.8372 173.744 25.1788C173.573 25.3497 173.349 25.4351 173.125 25.4351Z" fill="#C82021"/>
<path d="M163.499 38.1233H156.499C156.016 38.1233 155.624 37.7315 155.624 37.2483V29.4831C155.624 27.9755 156.851 26.7489 158.359 26.7489H161.64C163.147 26.7489 164.374 27.9755 164.374 29.4831V37.2483C164.374 37.7315 163.982 38.1233 163.499 38.1233ZM157.374 36.3734H162.624V29.4831C162.624 28.9404 162.182 28.4988 161.64 28.4988H158.359C157.816 28.4988 157.374 28.9404 157.374 29.4831V36.3734Z" fill="#C82021"/>
<path d="M149.825 61H148.551V56.905H143.845V61H142.571V51.783H143.845V55.722H148.551V51.783H149.825V61ZM154.717 60.103C155.757 60.103 156.667 59.323 156.667 57.867C156.667 56.424 155.757 55.644 154.717 55.644C153.677 55.644 152.767 56.424 152.767 57.867C152.767 59.323 153.677 60.103 154.717 60.103ZM154.717 54.552C156.589 54.552 157.915 55.969 157.915 57.867C157.915 59.778 156.589 61.195 154.717 61.195C152.845 61.195 151.519 59.778 151.519 57.867C151.519 55.969 152.845 54.552 154.717 54.552ZM163.536 60.246C163.198 60.896 162.418 61.195 161.69 61.195C160.234 61.195 159.35 60.103 159.35 58.686V54.747H160.572V58.504C160.572 59.362 160.962 60.116 161.989 60.116C162.977 60.116 163.471 59.466 163.471 58.517V54.747H164.693V59.843C164.693 60.337 164.732 60.779 164.758 61H163.588C163.562 60.857 163.536 60.506 163.536 60.246ZM166.193 59.375L167.298 58.985C167.376 59.635 167.87 60.155 168.754 60.155C169.443 60.155 169.82 59.765 169.82 59.323C169.82 58.933 169.534 58.634 169.014 58.517L167.948 58.283C166.973 58.075 166.388 57.412 166.388 56.528C166.388 55.462 167.389 54.552 168.611 54.552C170.327 54.552 170.86 55.67 170.99 56.229L169.911 56.632C169.859 56.307 169.599 55.592 168.611 55.592C167.987 55.592 167.571 55.995 167.571 56.424C167.571 56.801 167.805 57.074 168.286 57.178L169.3 57.399C170.431 57.646 171.029 58.335 171.029 59.258C171.029 60.142 170.288 61.195 168.741 61.195C167.025 61.195 166.297 60.09 166.193 59.375ZM173.386 57.23H176.805C176.779 56.333 176.194 55.631 175.089 55.631C174.062 55.631 173.438 56.424 173.386 57.23ZM176.987 58.855L178.04 59.219C177.689 60.324 176.688 61.195 175.232 61.195C173.555 61.195 172.086 59.973 172.086 57.854C172.086 55.891 173.503 54.552 175.076 54.552C177 54.552 178.079 55.878 178.079 57.828C178.079 57.984 178.066 58.14 178.053 58.218H173.347C173.373 59.336 174.179 60.116 175.232 60.116C176.246 60.116 176.753 59.557 176.987 58.855Z" fill="#C82021"/>
<path d="M270.291 24.2388L259.987 21.4484C260.845 17.4389 263.057 14.6486 266.724 12.978C271.013 11.0274 276.106 11.9485 279.529 15.2626C282.752 18.3871 283.899 23.3357 282.256 27.4084L272.024 24.6993C270.977 28.6365 269.902 32.4924 268.936 36.3664C268.62 37.6487 268.069 38.1725 266.715 37.6397L270.291 24.2297V24.2388ZM270.76 22.4959L273.009 14.0797C270.869 13.5469 267.916 17.2854 267.04 21.4755L270.76 22.4959ZM276.35 23.9678C276.955 21.1865 277.145 18.5587 276.332 15.9399C276.151 15.353 275.573 14.8834 275.185 14.3506L274.752 14.5402L272.494 22.9655L276.341 23.9678H276.35ZM281.136 25.196C281.488 22.0625 280.766 19.4617 278.689 17.0236C278.59 19.1005 278.707 20.9517 278.355 22.7126C278.048 24.2388 278.517 24.7986 279.899 24.9702C280.233 25.0154 280.567 25.0876 281.136 25.1869V25.196ZM268.331 14.2693C265.378 15.2988 263.355 17.1951 262.191 20.1842L264.945 20.9156L268.331 14.2693Z" fill="#565656"/>
<path d="M261.532 37.8112C259.554 37.7932 257.956 36.1316 258.001 34.154C258.046 32.1763 259.717 30.596 261.694 30.6683C263.609 30.7315 265.153 32.3298 265.144 34.2533C265.144 36.2309 263.5 37.8383 261.523 37.8203L261.532 37.8112ZM263.374 34.2985C263.284 33.1787 262.697 32.5105 261.613 32.4834C260.502 32.4472 259.861 33.1335 259.825 34.2172C259.789 35.3279 260.475 35.9691 261.55 36.0052C262.67 36.0503 263.211 35.3279 263.374 34.2985Z" fill="#565656"/>
<path d="M232.983 51.783H235.986C237.741 51.783 238.768 52.823 238.768 54.279C238.768 55.267 238.196 55.969 237.39 56.268C238.443 56.528 239.054 57.464 239.054 58.491C239.054 59.947 237.897 61 236.207 61H232.983V51.783ZM234.257 55.813H235.843C236.87 55.813 237.481 55.202 237.481 54.344C237.481 53.473 236.844 52.901 235.791 52.901H234.257V55.813ZM234.257 59.882H236.025C237.052 59.882 237.754 59.31 237.754 58.413C237.754 57.529 237.195 56.905 236.077 56.905H234.257V59.882ZM241.529 57.23H244.948C244.922 56.333 244.337 55.631 243.232 55.631C242.205 55.631 241.581 56.424 241.529 57.23ZM245.13 58.855L246.183 59.219C245.832 60.324 244.831 61.195 243.375 61.195C241.698 61.195 240.229 59.973 240.229 57.854C240.229 55.891 241.646 54.552 243.219 54.552C245.143 54.552 246.222 55.878 246.222 57.828C246.222 57.984 246.209 58.14 246.196 58.218H241.49C241.516 59.336 242.322 60.116 243.375 60.116C244.389 60.116 244.896 59.557 245.13 58.855ZM247.392 59.323C247.392 58.205 248.211 57.581 249.29 57.425L250.98 57.178C251.357 57.126 251.461 56.931 251.461 56.71C251.461 56.099 251.058 55.592 250.109 55.592C249.251 55.592 248.77 56.125 248.692 56.853L247.522 56.58C247.652 55.384 248.731 54.552 250.083 54.552C251.955 54.552 252.683 55.618 252.683 56.84V59.973C252.683 60.519 252.735 60.844 252.761 61H251.565C251.539 60.844 251.5 60.61 251.5 60.155C251.227 60.597 250.603 61.195 249.485 61.195C248.211 61.195 247.392 60.311 247.392 59.323ZM249.654 60.168C250.655 60.168 251.461 59.687 251.461 58.322V58.036L249.55 58.322C249.03 58.4 248.64 58.699 248.64 59.258C248.64 59.726 249.03 60.168 249.654 60.168ZM257.213 55.683C256.225 55.683 255.315 56.411 255.315 57.867C255.315 59.297 256.212 60.064 257.226 60.064C258.396 60.064 258.825 59.271 258.968 58.777L260.047 59.245C259.748 60.142 258.851 61.195 257.226 61.195C255.406 61.195 254.067 59.765 254.067 57.867C254.067 55.917 255.432 54.552 257.213 54.552C258.877 54.552 259.735 55.592 259.995 56.541L258.89 57.009C258.734 56.398 258.279 55.683 257.213 55.683ZM262.702 57.321V61H261.48V51.588H262.702V55.475C263.157 54.812 263.885 54.565 264.6 54.565C266.095 54.565 266.836 55.644 266.836 57.035V61H265.614V57.243C265.614 56.372 265.25 55.67 264.158 55.67C263.222 55.67 262.728 56.398 262.702 57.321ZM279.414 61H278.14V56.905H273.434V61H272.16V51.783H273.434V55.722H278.14V51.783H279.414V61ZM284.306 60.103C285.346 60.103 286.256 59.323 286.256 57.867C286.256 56.424 285.346 55.644 284.306 55.644C283.266 55.644 282.356 56.424 282.356 57.867C282.356 59.323 283.266 60.103 284.306 60.103ZM284.306 54.552C286.178 54.552 287.504 55.969 287.504 57.867C287.504 59.778 286.178 61.195 284.306 61.195C282.434 61.195 281.108 59.778 281.108 57.867C281.108 55.969 282.434 54.552 284.306 54.552ZM293.125 60.246C292.787 60.896 292.007 61.195 291.279 61.195C289.823 61.195 288.939 60.103 288.939 58.686V54.747H290.161V58.504C290.161 59.362 290.551 60.116 291.578 60.116C292.566 60.116 293.06 59.466 293.06 58.517V54.747H294.282V59.843C294.282 60.337 294.321 60.779 294.347 61H293.177C293.151 60.857 293.125 60.506 293.125 60.246ZM295.782 59.375L296.887 58.985C296.965 59.635 297.459 60.155 298.343 60.155C299.032 60.155 299.409 59.765 299.409 59.323C299.409 58.933 299.123 58.634 298.603 58.517L297.537 58.283C296.562 58.075 295.977 57.412 295.977 56.528C295.977 55.462 296.978 54.552 298.2 54.552C299.916 54.552 300.449 55.67 300.579 56.229L299.5 56.632C299.448 56.307 299.188 55.592 298.2 55.592C297.576 55.592 297.16 55.995 297.16 56.424C297.16 56.801 297.394 57.074 297.875 57.178L298.889 57.399C300.02 57.646 300.618 58.335 300.618 59.258C300.618 60.142 299.877 61.195 298.33 61.195C296.614 61.195 295.886 60.09 295.782 59.375ZM302.975 57.23H306.394C306.368 56.333 305.783 55.631 304.678 55.631C303.651 55.631 303.027 56.424 302.975 57.23ZM306.576 58.855L307.629 59.219C307.278 60.324 306.277 61.195 304.821 61.195C303.144 61.195 301.675 59.973 301.675 57.854C301.675 55.891 303.092 54.552 304.665 54.552C306.589 54.552 307.668 55.878 307.668 57.828C307.668 57.984 307.655 58.14 307.642 58.218H302.936C302.962 59.336 303.768 60.116 304.821 60.116C305.835 60.116 306.342 59.557 306.576 58.855Z" fill="#565656"/>
<path d="M369.044 25.6942L368.051 26.5187L367 25.385C370.879 21.3914 374.607 17.4922 378.403 13.6617C379.395 12.6655 380.772 12.8286 381.848 13.9194C383.875 15.972 385.876 18.059 387.895 20.1203C388.204 20.4381 388.537 20.7387 389.071 21.2368V14.9414H390.739C390.739 16.745 390.881 18.5915 390.706 20.3951C390.498 22.4993 391.19 24.0452 393 25.2304L391.882 26.4672L390.973 25.7458C390.898 25.7887 390.79 25.823 390.781 25.8746C390.573 26.931 389.989 27.9788 390.723 29.0609C390.765 29.1296 390.748 29.2499 390.739 29.3357C390.531 31.0105 390.506 32.6681 390.689 34.3686C390.856 35.8974 389.722 36.9623 388.22 36.9709C382.757 37.0053 377.293 37.0139 371.83 36.9709C369.769 36.9537 368.718 35.0213 369.352 32.754C369.511 32.1957 369.377 31.5602 369.352 30.959C369.336 30.3062 369.252 29.6449 369.269 28.9922C369.294 27.9186 369.386 26.8451 369.444 25.7715L369.035 25.6942H369.044ZM379.987 24.2256C377.368 24.2256 374.757 24.1912 372.138 24.2599C371.721 24.2685 371.037 24.7237 370.97 25.0673C370.879 25.5568 371.212 26.5874 371.438 26.6046C372.972 26.7334 374.757 27.1714 376.034 26.5531C378.353 25.4366 380.722 25.6685 382.84 26.1494C384.45 26.5101 386.01 26.6475 387.603 26.7678C388.512 26.8365 389.113 26.596 389.105 25.4709C389.096 24.3201 388.437 24.1998 387.561 24.2084C385.034 24.2342 382.515 24.2084 379.987 24.217V24.2256ZM377.619 27.6868V35.2189H382.398V27.6868H377.619ZM372.338 22.4306H387.662C386.527 20.6785 385.218 19.6994 383.09 19.9313C381.097 20.146 379.045 20.1375 377.051 19.9313C374.908 19.708 373.473 20.5583 372.338 22.4306ZM376.351 17.8959L376.584 18.1621H383.941C382.698 16.9855 381.756 16.1009 380.83 15.1991C380.254 14.6408 379.721 14.6494 379.145 15.1991C378.219 16.1009 377.285 16.9855 376.351 17.8873V17.8959ZM375.792 28.4941C374.415 28.4941 373.098 28.4168 371.796 28.5456C371.463 28.58 370.945 29.2842 370.962 29.6707C370.979 30.1345 371.438 30.9246 371.763 30.9676C373.098 31.1136 374.457 31.0277 375.792 31.0277V28.4941ZM384.192 31.0277C385.56 31.0277 386.836 31.1222 388.087 30.9676C388.462 30.9246 388.929 30.2547 389.046 29.7909C389.23 29.0781 388.904 28.4855 388.045 28.4855C386.777 28.4855 385.509 28.4855 384.183 28.4855V31.0277H384.192ZM375.792 32.7454C374.424 32.7454 373.148 32.6509 371.896 32.8055C371.521 32.8484 371.054 33.5183 370.937 33.9821C370.754 34.695 371.079 35.2876 371.938 35.2876C373.206 35.2876 374.474 35.2876 375.8 35.2876V32.7454H375.792ZM384.192 35.279C385.568 35.279 386.886 35.3563 388.187 35.2275C388.521 35.1931 389.038 34.4888 389.021 34.111C389.004 33.6472 388.546 32.857 388.22 32.8141C386.886 32.6681 385.526 32.754 384.192 32.754V35.2876V35.279Z" fill="#565656"/>
<path d="M364.925 61.195C362.546 61.195 360.349 59.466 360.349 56.385C360.349 53.304 362.637 51.588 364.925 51.588C367.031 51.588 368.513 52.732 368.981 54.513L367.798 54.929C367.447 53.538 366.433 52.758 364.925 52.758C363.248 52.758 361.649 53.98 361.649 56.385C361.649 58.79 363.248 60.025 364.925 60.025C366.498 60.025 367.486 59.076 367.863 57.815L368.994 58.231C368.5 59.96 367.044 61.195 364.925 61.195ZM369.91 59.323C369.91 58.205 370.729 57.581 371.808 57.425L373.498 57.178C373.875 57.126 373.979 56.931 373.979 56.71C373.979 56.099 373.576 55.592 372.627 55.592C371.769 55.592 371.288 56.125 371.21 56.853L370.04 56.58C370.17 55.384 371.249 54.552 372.601 54.552C374.473 54.552 375.201 55.618 375.201 56.84V59.973C375.201 60.519 375.253 60.844 375.279 61H374.083C374.057 60.844 374.018 60.61 374.018 60.155C373.745 60.597 373.121 61.195 372.003 61.195C370.729 61.195 369.91 60.311 369.91 59.323ZM372.172 60.168C373.173 60.168 373.979 59.687 373.979 58.322V58.036L372.068 58.322C371.548 58.4 371.158 58.699 371.158 59.258C371.158 59.726 371.548 60.168 372.172 60.168ZM378.313 61H377.104V51.588H378.313V55.631C378.612 55.072 379.34 54.565 380.38 54.565C382.278 54.565 383.253 56.021 383.253 57.841C383.253 59.7 382.2 61.169 380.341 61.169C379.418 61.169 378.703 60.766 378.313 60.09V61ZM382.005 57.841C382.005 56.489 381.29 55.644 380.159 55.644C379.08 55.644 378.3 56.489 378.3 57.841C378.3 59.193 379.08 60.077 380.159 60.077C381.277 60.077 382.005 59.193 382.005 57.841ZM386.02 61H384.811V54.747H386.02V61ZM384.538 52.381C384.538 51.887 384.928 51.497 385.409 51.497C385.903 51.497 386.293 51.887 386.293 52.381C386.293 52.862 385.903 53.252 385.409 53.252C384.928 53.252 384.538 52.862 384.538 52.381ZM389.321 57.386V61H388.099V54.747H389.295V55.644C389.75 54.864 390.491 54.565 391.219 54.565C392.714 54.565 393.455 55.644 393.455 57.035V61H392.233V57.243C392.233 56.372 391.869 55.67 390.777 55.67C389.815 55.67 389.321 56.437 389.321 57.386ZM394.813 59.375L395.918 58.985C395.996 59.635 396.49 60.155 397.374 60.155C398.063 60.155 398.44 59.765 398.44 59.323C398.44 58.933 398.154 58.634 397.634 58.517L396.568 58.283C395.593 58.075 395.008 57.412 395.008 56.528C395.008 55.462 396.009 54.552 397.231 54.552C398.947 54.552 399.48 55.67 399.61 56.229L398.531 56.632C398.479 56.307 398.219 55.592 397.231 55.592C396.607 55.592 396.191 55.995 396.191 56.424C396.191 56.801 396.425 57.074 396.906 57.178L397.92 57.399C399.051 57.646 399.649 58.335 399.649 59.258C399.649 60.142 398.908 61.195 397.361 61.195C395.645 61.195 394.917 60.09 394.813 59.375Z" fill="#565656"/>
<path d="M487.926 38.0009C487.844 37.7061 487.781 37.6048 487.799 37.5218C488.767 32.7493 484.614 31.4503 482.144 29.0732C481.683 28.6218 480.524 28.9166 479.683 28.8889C479.149 28.8705 478.606 28.8889 478 28.8889V27.1292H481.411V18.5608L479.267 19.5651L478.407 18.0541C481.393 16.4049 484.433 14.986 487.193 13.1342C489.618 11.5034 491.554 11.7061 493.907 13.2631C496.594 15.0505 499.553 16.4141 502.511 18.0264L501.67 19.5558L499.498 18.524V27.0002H502.919L502.991 28.677C502.783 28.7507 502.629 28.8613 502.511 28.8429C498.214 27.8939 496.196 31.4779 493.481 33.6154C493.147 33.8826 493.183 34.721 493.156 35.3014C493.101 36.149 493.147 37.0059 493.147 37.918H491.473L491.274 36.2504H489.636L489.509 37.918L487.926 37.9917V38.0009ZM487.772 26.991C487.772 26.0144 487.772 25.2036 487.772 24.4021C487.808 20.1824 487.211 20.7259 491.563 20.6614C492.712 20.643 493.201 21.0668 493.156 22.2554C493.101 23.8124 493.138 25.3695 493.138 26.9541H497.616C497.616 23.923 497.653 20.9931 497.571 18.0725C497.562 17.6763 497.055 17.1512 496.648 16.9208C494.884 15.8889 493.083 14.9123 491.265 13.991C490.848 13.7791 490.179 13.7238 489.79 13.9173C487.79 14.9215 485.827 16.0271 483.872 17.1235C483.619 17.2709 483.329 17.6303 483.32 17.8975C483.284 20.9194 483.293 23.9322 483.293 26.991H487.763H487.772ZM489.654 22.5225V27.0555L491.237 26.9818V22.5133H489.654V22.5225ZM484.849 28.935L487.691 31.2936V28.935H484.849ZM495.933 28.9719H493.273V31.3581L495.933 28.9719ZM491.274 30.6395V28.9719H489.663V30.6395H491.274ZM491.256 34.2787V32.6388H489.627V34.2787H491.256Z" fill="#565656"/>
<path d="M490.542 18.2383C490.117 17.7316 489.61 17.3723 489.655 17.1327C489.728 16.7642 490.189 16.4694 490.479 16.1377C490.759 16.4233 491.239 16.6905 491.275 17.0037C491.311 17.317 490.895 17.6763 490.542 18.2291V18.2383Z" fill="#565656"/>
<path d="M464.482 52.966H461.401V61H460.127V52.966H457.046V51.783H464.482V52.966ZM468.346 54.682V55.982C468.164 55.956 467.982 55.943 467.813 55.943C466.786 55.943 466.097 56.489 466.097 57.867V61H464.875V54.747H466.071V55.839C466.526 54.877 467.306 54.643 467.943 54.643C468.112 54.643 468.281 54.669 468.346 54.682ZM470.378 57.23H473.797C473.771 56.333 473.186 55.631 472.081 55.631C471.054 55.631 470.43 56.424 470.378 57.23ZM473.979 58.855L475.032 59.219C474.681 60.324 473.68 61.195 472.224 61.195C470.547 61.195 469.078 59.973 469.078 57.854C469.078 55.891 470.495 54.552 472.068 54.552C473.992 54.552 475.071 55.878 475.071 57.828C475.071 57.984 475.058 58.14 475.045 58.218H470.339C470.365 59.336 471.171 60.116 472.224 60.116C473.238 60.116 473.745 59.557 473.979 58.855ZM477.424 57.23H480.843C480.817 56.333 480.232 55.631 479.127 55.631C478.1 55.631 477.476 56.424 477.424 57.23ZM481.025 58.855L482.078 59.219C481.727 60.324 480.726 61.195 479.27 61.195C477.593 61.195 476.124 59.973 476.124 57.854C476.124 55.891 477.541 54.552 479.114 54.552C481.038 54.552 482.117 55.878 482.117 57.828C482.117 57.984 482.104 58.14 482.091 58.218H477.385C477.411 59.336 478.217 60.116 479.27 60.116C480.284 60.116 480.791 59.557 481.025 58.855ZM494.311 61H493.037V56.905H488.331V61H487.057V51.783H488.331V55.722H493.037V51.783H494.311V61ZM499.202 60.103C500.242 60.103 501.152 59.323 501.152 57.867C501.152 56.424 500.242 55.644 499.202 55.644C498.162 55.644 497.252 56.424 497.252 57.867C497.252 59.323 498.162 60.103 499.202 60.103ZM499.202 54.552C501.074 54.552 502.4 55.969 502.4 57.867C502.4 59.778 501.074 61.195 499.202 61.195C497.33 61.195 496.004 59.778 496.004 57.867C496.004 55.969 497.33 54.552 499.202 54.552ZM508.021 60.246C507.683 60.896 506.903 61.195 506.175 61.195C504.719 61.195 503.835 60.103 503.835 58.686V54.747H505.057V58.504C505.057 59.362 505.447 60.116 506.474 60.116C507.462 60.116 507.956 59.466 507.956 58.517V54.747H509.178V59.843C509.178 60.337 509.217 60.779 509.243 61H508.073C508.047 60.857 508.021 60.506 508.021 60.246ZM510.679 59.375L511.784 58.985C511.862 59.635 512.356 60.155 513.24 60.155C513.929 60.155 514.306 59.765 514.306 59.323C514.306 58.933 514.02 58.634 513.5 58.517L512.434 58.283C511.459 58.075 510.874 57.412 510.874 56.528C510.874 55.462 511.875 54.552 513.097 54.552C514.813 54.552 515.346 55.67 515.476 56.229L514.397 56.632C514.345 56.307 514.085 55.592 513.097 55.592C512.473 55.592 512.057 55.995 512.057 56.424C512.057 56.801 512.291 57.074 512.772 57.178L513.786 57.399C514.917 57.646 515.515 58.335 515.515 59.258C515.515 60.142 514.774 61.195 513.227 61.195C511.511 61.195 510.783 60.09 510.679 59.375ZM517.871 57.23H521.29C521.264 56.333 520.679 55.631 519.574 55.631C518.547 55.631 517.923 56.424 517.871 57.23ZM521.472 58.855L522.525 59.219C522.174 60.324 521.173 61.195 519.717 61.195C518.04 61.195 516.571 59.973 516.571 57.854C516.571 55.891 517.988 54.552 519.561 54.552C521.485 54.552 522.564 55.878 522.564 57.828C522.564 57.984 522.551 58.14 522.538 58.218H517.832C517.858 59.336 518.664 60.116 519.717 60.116C520.731 60.116 521.238 59.557 521.472 58.855Z" fill="#565656"/>
<path d="M594.76 15.6997C595.05 12.588 597.736 11.1384 600.49 12.53C600.916 12.7426 601.602 12.8779 601.979 12.6943C605.284 11.0321 608.028 12.6266 608.086 16.3086C608.086 16.7241 608.086 17.1397 608.086 17.7195H611.845V19.5943H608.183V24.1943C609.497 25.1703 612.087 24.8901 611.884 28.0212C610.879 27.538 610.135 27.0258 609.313 26.8325C608.521 26.6489 607.458 26.4943 606.859 26.8712C605.052 28.0115 603.409 28.0888 601.698 26.8229C600.809 26.1657 599.959 26.2044 599.07 26.8808C597.475 28.0888 595.813 28.0888 594.199 26.9485C593.194 26.2334 592.324 26.185 591.3 26.9388C590.691 27.3834 589.889 27.5766 589.135 27.8955C588.768 25.8371 591.368 24.001 593.581 24.5132C595.426 24.9481 598.451 24.8804 600.239 24.3682C600.278 24.3586 600.297 24.3006 600.355 24.2233V19.6619H589V17.7871H600.384C600.384 16.9077 600.577 16.1153 600.326 15.4871C600.084 14.8783 599.466 14.1632 598.896 14.0376C598.326 13.9119 597.253 14.2985 597.031 14.7623C596.49 15.893 595.774 15.9993 594.76 15.7094V15.6997ZM602.346 19.7102C602.346 21.3434 602.162 22.8607 602.433 24.2909C602.549 24.8997 603.602 25.7308 604.24 25.7308C604.878 25.7308 605.97 24.9287 606.086 24.3296C606.356 22.851 606.173 21.2951 606.173 19.7102H602.346ZM602.442 17.6035H606.115C606.25 14.888 605.661 13.8153 604.143 13.9023C602.713 13.9892 602.211 15.0426 602.442 17.6035Z" fill="#565656"/>
<path d="M611.962 32.805C610.928 32.3412 610.125 32.0996 609.449 31.655C608.541 31.0655 607.709 30.9399 606.811 31.6164C605.1 32.9113 603.399 32.8823 601.689 31.6164C600.809 30.9592 599.949 31.0076 599.06 31.6744C597.466 32.8823 595.804 32.8823 594.199 31.742C593.194 31.0269 592.334 30.9689 591.31 31.7227C590.701 32.1672 589.909 32.3605 589.155 32.6794C588.759 30.5727 591.494 28.7076 593.736 29.3454C594.035 29.4323 594.373 29.529 594.605 29.7223C595.949 30.8336 597.157 30.8046 598.606 29.7319C599.92 28.7655 601.476 29.0651 602.771 30.0218C603.834 30.7949 604.743 30.7466 605.806 29.9928C607.526 28.7849 610.609 29.2004 611.739 30.7853C612.02 31.1815 611.875 31.8676 611.962 32.7954V32.805Z" fill="#565656"/>
<path d="M611.642 37.4726C610.898 37.1247 610.105 36.8445 609.419 36.4096C608.501 35.8201 607.67 35.7524 606.781 36.4192C605.128 37.6659 603.447 37.6659 601.785 36.4579C600.837 35.7621 599.977 35.7718 599.03 36.4869C597.436 37.6756 595.764 37.6562 594.169 36.4869C593.164 35.7621 592.285 35.7814 591.27 36.5255C590.671 36.9604 589.879 37.1344 589.115 37.4436C588.796 35.2789 591.55 33.4621 593.773 34.1482C594.276 34.3029 594.759 34.5638 595.184 34.8634C596.122 35.5398 597.02 35.6075 597.958 34.8924C599.562 33.6747 601.205 33.6844 602.819 34.8344C603.824 35.5495 604.703 35.5398 605.727 34.8344C607.602 33.5491 610.153 33.8293 611.671 35.4915C611.99 35.8394 611.903 36.5545 611.999 37.1054L611.651 37.4629L611.642 37.4726Z" fill="#565656"/>
<path d="M569.512 56.086H571.358C572.463 56.086 573.139 55.475 573.139 54.526C573.139 53.551 572.463 52.927 571.358 52.927H569.512V56.086ZM571.592 57.23H569.512V61H568.238V51.783H571.592C573.295 51.783 574.439 52.966 574.439 54.513C574.439 56.073 573.295 57.23 571.592 57.23ZM578.023 60.103C579.063 60.103 579.973 59.323 579.973 57.867C579.973 56.424 579.063 55.644 578.023 55.644C576.983 55.644 576.073 56.424 576.073 57.867C576.073 59.323 576.983 60.103 578.023 60.103ZM578.023 54.552C579.895 54.552 581.221 55.969 581.221 57.867C581.221 59.778 579.895 61.195 578.023 61.195C576.151 61.195 574.825 59.778 574.825 57.867C574.825 55.969 576.151 54.552 578.023 54.552ZM585.462 60.103C586.502 60.103 587.412 59.323 587.412 57.867C587.412 56.424 586.502 55.644 585.462 55.644C584.422 55.644 583.512 56.424 583.512 57.867C583.512 59.323 584.422 60.103 585.462 60.103ZM585.462 54.552C587.334 54.552 588.66 55.969 588.66 57.867C588.66 59.778 587.334 61.195 585.462 61.195C583.59 61.195 582.264 59.778 582.264 57.867C582.264 55.969 583.59 54.552 585.462 54.552ZM591.446 61H590.224V51.588H591.446V61ZM604.158 61H602.884V56.905H598.178V61H596.904V51.783H598.178V55.722H602.884V51.783H604.158V61ZM609.05 60.103C610.09 60.103 611 59.323 611 57.867C611 56.424 610.09 55.644 609.05 55.644C608.01 55.644 607.1 56.424 607.1 57.867C607.1 59.323 608.01 60.103 609.05 60.103ZM609.05 54.552C610.922 54.552 612.248 55.969 612.248 57.867C612.248 59.778 610.922 61.195 609.05 61.195C607.178 61.195 605.852 59.778 605.852 57.867C605.852 55.969 607.178 54.552 609.05 54.552ZM617.869 60.246C617.531 60.896 616.751 61.195 616.023 61.195C614.567 61.195 613.683 60.103 613.683 58.686V54.747H614.905V58.504C614.905 59.362 615.295 60.116 616.322 60.116C617.31 60.116 617.804 59.466 617.804 58.517V54.747H619.026V59.843C619.026 60.337 619.065 60.779 619.091 61H617.921C617.895 60.857 617.869 60.506 617.869 60.246ZM620.526 59.375L621.631 58.985C621.709 59.635 622.203 60.155 623.087 60.155C623.776 60.155 624.153 59.765 624.153 59.323C624.153 58.933 623.867 58.634 623.347 58.517L622.281 58.283C621.306 58.075 620.721 57.412 620.721 56.528C620.721 55.462 621.722 54.552 622.944 54.552C624.66 54.552 625.193 55.67 625.323 56.229L624.244 56.632C624.192 56.307 623.932 55.592 622.944 55.592C622.32 55.592 621.904 55.995 621.904 56.424C621.904 56.801 622.138 57.074 622.619 57.178L623.633 57.399C624.764 57.646 625.362 58.335 625.362 59.258C625.362 60.142 624.621 61.195 623.074 61.195C621.358 61.195 620.63 60.09 620.526 59.375ZM627.719 57.23H631.138C631.112 56.333 630.527 55.631 629.422 55.631C628.395 55.631 627.771 56.424 627.719 57.23ZM631.32 58.855L632.373 59.219C632.022 60.324 631.021 61.195 629.565 61.195C627.888 61.195 626.419 59.973 626.419 57.854C626.419 55.891 627.836 54.552 629.409 54.552C631.333 54.552 632.412 55.878 632.412 57.828C632.412 57.984 632.399 58.14 632.386 58.218H627.68C627.706 59.336 628.512 60.116 629.565 60.116C630.579 60.116 631.086 59.557 631.32 58.855Z" fill="#565656"/>
<path d="M721.993 24.8009V26.4325H698.022C698.022 23.6119 697.996 20.7654 698.048 17.9275C698.048 17.615 698.378 17.2592 698.647 17.0162C700.262 15.6016 701.902 14.2304 703.516 12.8158C704.427 12.0347 705.286 12.0087 706.198 12.7984C707.821 14.2044 709.487 15.5495 711.049 17.0075C711.44 17.372 711.691 18.0576 711.717 18.6044C711.795 20.6005 711.752 22.5965 711.752 24.7054H716.812V20.748L713.566 21.503V20.045C714.607 19.4809 715.666 19.073 716.49 18.3874C716.89 18.0576 716.855 17.1898 717.072 16.3046C716.3 16.6344 715.814 16.8947 715.301 17.0509C714.763 17.2158 714.199 17.2766 713.548 17.4068V15.671C715.761 15.5148 716.846 14.2478 716.942 12H718.547C718.686 14.1436 719.684 15.5061 721.984 15.671V17.4935L718.703 16.5302C718.513 18.6304 719.051 19.1859 721.993 19.802V21.4596L718.669 20.7567V24.7922H721.984L721.993 24.8009ZM707.456 24.7228H710.034C710.034 22.7267 710.051 20.8348 710.016 18.9342C710.016 18.6304 709.895 18.2399 709.678 18.0576C708.116 16.6778 706.519 15.3413 704.879 13.944C703.238 15.3413 701.676 16.6517 700.14 17.9882C699.949 18.1531 699.749 18.4569 699.749 18.6912C699.715 20.7133 699.732 22.7441 699.732 24.7402H702.301C702.301 23.4904 702.284 22.3101 702.301 21.1299C702.327 19.6545 702.344 19.6632 705.399 19.6545C706.484 19.6545 707.578 19.5156 707.465 21.1733C707.387 22.3101 707.447 23.447 707.447 24.7141L707.456 24.7228ZM704.089 24.7228H705.634V21.451H704.089V24.7228Z" fill="#565656"/>
<path d="M721.864 31.6739C721.048 31.292 720.232 31.0577 719.581 30.5804C718.54 29.8253 717.637 29.7906 716.587 30.5457C714.774 31.8561 713.307 31.8474 711.493 30.537C710.504 29.8167 709.618 29.808 708.62 30.5109C706.702 31.8735 705.366 31.8561 703.405 30.4762C702.459 29.808 701.608 29.8253 700.645 30.4675C699.924 30.9449 699.1 31.2573 698.111 31.752L698.007 30.077C698.692 29.6431 699.308 29.2352 699.951 28.862C701.461 27.9855 702.971 27.9681 704.359 29.0703C705.522 29.9989 706.538 29.9382 707.709 29.0703C709.297 27.89 710.868 27.916 712.456 29.1224C713.524 29.9382 714.487 29.9555 715.572 29.1831C717.447 27.8466 718.662 27.89 720.658 29.2612C721.618 29.9208 722.026 30.7221 721.881 31.6652L721.864 31.6739Z" fill="#565656"/>
<path d="M698.047 36.0657V34.3213C698.69 33.9307 699.306 33.5142 699.957 33.1497C701.415 32.3078 702.899 32.2384 704.235 33.2972C705.433 34.2345 706.474 34.2866 707.707 33.358C709.277 32.1777 710.857 32.2211 712.454 33.4274C713.53 34.2432 714.493 34.2432 715.569 33.4708C717.383 32.1777 718.737 32.2037 720.551 33.4708C721.581 34.194 722.015 35.0271 721.853 35.9702C721.002 35.5536 720.169 35.2412 719.449 34.7639C718.485 34.1303 717.635 34.0956 716.68 34.7639C714.632 36.1785 713.469 36.1611 711.352 34.7292C710.449 34.1217 709.616 34.1217 708.705 34.7292C706.57 36.1698 705.407 36.1785 703.376 34.7639C702.43 34.1043 701.571 34.1303 700.608 34.7639C699.887 35.2412 699.054 35.5536 698.03 36.057L698.047 36.0657Z" fill="#565656"/>
<path d="M688.799 61H683.17V51.783H684.444V59.804H688.799V61ZM689.773 59.323C689.773 58.205 690.592 57.581 691.671 57.425L693.361 57.178C693.738 57.126 693.842 56.931 693.842 56.71C693.842 56.099 693.439 55.592 692.49 55.592C691.632 55.592 691.151 56.125 691.073 56.853L689.903 56.58C690.033 55.384 691.112 54.552 692.464 54.552C694.336 54.552 695.064 55.618 695.064 56.84V59.973C695.064 60.519 695.116 60.844 695.142 61H693.946C693.92 60.844 693.881 60.61 693.881 60.155C693.608 60.597 692.984 61.195 691.866 61.195C690.592 61.195 689.773 60.311 689.773 59.323ZM692.035 60.168C693.036 60.168 693.842 59.687 693.842 58.322V58.036L691.931 58.322C691.411 58.4 691.021 58.699 691.021 59.258C691.021 59.726 691.411 60.168 692.035 60.168ZM702.57 54.747L699.905 57.386L702.622 61H701.088L699.047 58.244L698.176 59.115V61H696.967V51.588H698.176V57.516L700.88 54.747H702.57ZM704.26 57.23H707.679C707.653 56.333 707.068 55.631 705.963 55.631C704.936 55.631 704.312 56.424 704.26 57.23ZM707.861 58.855L708.914 59.219C708.563 60.324 707.562 61.195 706.106 61.195C704.429 61.195 702.96 59.973 702.96 57.854C702.96 55.891 704.377 54.552 705.95 54.552C707.874 54.552 708.953 55.878 708.953 57.828C708.953 57.984 708.94 58.14 708.927 58.218H704.221C704.247 59.336 705.053 60.116 706.106 60.116C707.12 60.116 707.627 59.557 707.861 58.855ZM713.659 55.852H712.151V61H710.89V55.852H709.733V54.747H710.89V53.694C710.89 52.303 711.813 51.549 712.944 51.549C713.36 51.549 713.62 51.64 713.672 51.679V52.771C713.607 52.745 713.451 52.693 713.139 52.693C712.71 52.693 712.151 52.901 712.151 53.759V54.747H713.659V55.852ZM718.44 54.682V55.982C718.258 55.956 718.076 55.943 717.907 55.943C716.88 55.943 716.191 56.489 716.191 57.867V61H714.969V54.747H716.165V55.839C716.62 54.877 717.4 54.643 718.037 54.643C718.206 54.643 718.375 54.669 718.44 54.682ZM722.357 60.103C723.397 60.103 724.307 59.323 724.307 57.867C724.307 56.424 723.397 55.644 722.357 55.644C721.317 55.644 720.407 56.424 720.407 57.867C720.407 59.323 721.317 60.103 722.357 60.103ZM722.357 54.552C724.229 54.552 725.555 55.969 725.555 57.867C725.555 59.778 724.229 61.195 722.357 61.195C720.485 61.195 719.159 59.778 719.159 57.867C719.159 55.969 720.485 54.552 722.357 54.552ZM728.341 57.386V61H727.119V54.747H728.315V55.644C728.77 54.864 729.511 54.565 730.239 54.565C731.734 54.565 732.475 55.644 732.475 57.035V61H731.253V57.243C731.253 56.372 730.889 55.67 729.797 55.67C728.835 55.67 728.341 56.437 728.341 57.386ZM736.056 52.771V54.747H737.408V55.852H736.056V59.102C736.056 59.674 736.29 59.96 736.927 59.96C737.083 59.96 737.304 59.934 737.408 59.908V60.948C737.304 60.987 736.992 61.065 736.576 61.065C735.51 61.065 734.834 60.415 734.834 59.284V55.852H733.638V54.747H733.976C734.652 54.747 734.938 54.331 734.938 53.785V52.771H736.056Z" fill="#565656"/>
<path d="M815.331 33.2603H807V31.4138C809.862 31.4138 812.696 31.3295 815.52 31.4513C816.951 31.5076 817.883 31.0483 818.532 29.6236H807.009V27.7678L808.77 27.6273C808.77 23.6063 808.742 19.651 808.798 15.6957C808.808 14.8522 808.968 13.9243 809.335 13.1745C810.144 11.5155 812.159 10.6813 813.919 11.1125C815.708 11.5436 817.035 13.1276 817.139 15.0022C817.177 15.7239 817.148 16.4456 817.148 17.1673C817.148 17.8327 817.148 18.4982 817.148 19.5386C818.617 18.4607 819.935 17.5984 821.121 16.5955C822.241 15.6395 823.145 15.4802 824.303 16.5955C825.442 17.7015 826.779 18.6107 828.248 19.7729V16.6893H830.13C830.488 19.0137 829.114 21.9849 832.71 23.1002L831.533 24.6655L830.309 23.9156V27.5241C830.356 27.5616 830.441 27.6647 830.516 27.6741C833.312 27.6929 832.983 27.9553 832.992 30.3453C832.992 32.0981 832.974 33.8508 832.992 35.6035C833.002 36.4658 832.691 37 831.759 37C823.541 37 815.322 37 807 37V35.1442C808.817 35.1442 810.615 35.1442 812.404 35.1442C813.552 35.1442 814.525 34.5225 815.322 33.279L815.331 33.2603ZM815.284 27.6366C815.284 23.4564 815.303 19.4542 815.284 15.4427C815.284 13.9055 814.334 12.8933 813.006 12.8652C811.613 12.837 810.653 13.8774 810.634 15.5083C810.615 18.3857 810.634 21.2632 810.634 24.1406C810.634 25.3028 810.634 26.465 810.634 27.6366H815.294H815.284ZM828.332 27.6366C828.332 25.9683 828.37 24.4311 828.304 22.894C828.285 22.5004 828.031 22.0036 827.72 21.7505C826.101 20.4009 824.435 19.1168 822.712 17.7484C821.018 18.9949 819.351 20.204 817.723 21.4506C817.468 21.6474 817.186 22.0036 817.177 22.2942C817.13 24.075 817.148 25.8558 817.148 27.6273H819.878C819.897 27.3179 819.935 27.0743 819.935 26.8306C819.973 22.5753 819.229 23.1002 824.058 23.0627C824.105 23.0627 824.162 23.0627 824.209 23.0627C825.122 23.0252 825.527 23.4845 825.527 24.3749C825.518 25.4434 825.527 26.5119 825.527 27.6366H828.323H828.332ZM824.134 29.858L824.011 29.4549C823.032 29.5862 821.733 29.3706 821.131 29.9142C819.483 31.3951 818.127 33.204 816.649 34.8818L816.885 35.3691C817.958 35.0786 819.285 35.088 820.039 34.4412C821.573 33.1009 822.797 31.4138 824.143 29.8673L824.134 29.858ZM822.279 34.8349L822.42 35.2004C823.371 35.0973 824.642 35.3504 825.216 34.8349C826.892 33.3165 828.295 31.4888 829.801 29.783L829.575 29.38C828.558 29.5768 827.24 29.4549 826.572 30.0454C824.981 31.4607 823.691 33.2134 822.279 34.8349ZM827.73 34.9849H830.997V31.2639L827.73 34.9849ZM821.94 24.9654V27.6085H823.588V24.9654H821.94Z" fill="#565656"/>
<path d="M787.507 61H786.233V51.783H791.836V52.966H787.507V55.93H791.433V57.126H787.507V61ZM792.416 59.323C792.416 58.205 793.235 57.581 794.314 57.425L796.004 57.178C796.381 57.126 796.485 56.931 796.485 56.71C796.485 56.099 796.082 55.592 795.133 55.592C794.275 55.592 793.794 56.125 793.716 56.853L792.546 56.58C792.676 55.384 793.755 54.552 795.107 54.552C796.979 54.552 797.707 55.618 797.707 56.84V59.973C797.707 60.519 797.759 60.844 797.785 61H796.589C796.563 60.844 796.524 60.61 796.524 60.155C796.251 60.597 795.627 61.195 794.509 61.195C793.235 61.195 792.416 60.311 792.416 59.323ZM794.678 60.168C795.679 60.168 796.485 59.687 796.485 58.322V58.036L794.574 58.322C794.054 58.4 793.664 58.699 793.664 59.258C793.664 59.726 794.054 60.168 794.678 60.168ZM803.081 54.682V55.982C802.899 55.956 802.717 55.943 802.548 55.943C801.521 55.943 800.832 56.489 800.832 57.867V61H799.61V54.747H800.806V55.839C801.261 54.877 802.041 54.643 802.678 54.643C802.847 54.643 803.016 54.669 803.081 54.682ZM805.593 61H804.384V54.747H805.554V55.579C805.944 54.89 806.724 54.565 807.452 54.565C808.232 54.565 808.986 54.942 809.324 55.748C809.818 54.851 810.624 54.565 811.417 54.565C812.509 54.565 813.575 55.306 813.575 56.944V61H812.366V57.074C812.366 56.255 811.963 55.644 811.04 55.644C810.182 55.644 809.597 56.32 809.597 57.217V61H808.375V57.074C808.375 56.268 807.985 55.644 807.049 55.644C806.178 55.644 805.593 56.294 805.593 57.23V61ZM826.164 61H824.89V56.905H820.184V61H818.91V51.783H820.184V55.722H824.89V51.783H826.164V61ZM831.056 60.103C832.096 60.103 833.006 59.323 833.006 57.867C833.006 56.424 832.096 55.644 831.056 55.644C830.016 55.644 829.106 56.424 829.106 57.867C829.106 59.323 830.016 60.103 831.056 60.103ZM831.056 54.552C832.928 54.552 834.254 55.969 834.254 57.867C834.254 59.778 832.928 61.195 831.056 61.195C829.184 61.195 827.858 59.778 827.858 57.867C827.858 55.969 829.184 54.552 831.056 54.552ZM839.875 60.246C839.537 60.896 838.757 61.195 838.029 61.195C836.573 61.195 835.689 60.103 835.689 58.686V54.747H836.911V58.504C836.911 59.362 837.301 60.116 838.328 60.116C839.316 60.116 839.81 59.466 839.81 58.517V54.747H841.032V59.843C841.032 60.337 841.071 60.779 841.097 61H839.927C839.901 60.857 839.875 60.506 839.875 60.246ZM842.532 59.375L843.637 58.985C843.715 59.635 844.209 60.155 845.093 60.155C845.782 60.155 846.159 59.765 846.159 59.323C846.159 58.933 845.873 58.634 845.353 58.517L844.287 58.283C843.312 58.075 842.727 57.412 842.727 56.528C842.727 55.462 843.728 54.552 844.95 54.552C846.666 54.552 847.199 55.67 847.329 56.229L846.25 56.632C846.198 56.307 845.938 55.592 844.95 55.592C844.326 55.592 843.91 55.995 843.91 56.424C843.91 56.801 844.144 57.074 844.625 57.178L845.639 57.399C846.77 57.646 847.368 58.335 847.368 59.258C847.368 60.142 846.627 61.195 845.08 61.195C843.364 61.195 842.636 60.09 842.532 59.375ZM849.725 57.23H853.144C853.118 56.333 852.533 55.631 851.428 55.631C850.401 55.631 849.777 56.424 849.725 57.23ZM853.326 58.855L854.379 59.219C854.028 60.324 853.027 61.195 851.571 61.195C849.894 61.195 848.425 59.973 848.425 57.854C848.425 55.891 849.842 54.552 851.415 54.552C853.339 54.552 854.418 55.878 854.418 57.828C854.418 57.984 854.405 58.14 854.392 58.218H849.686C849.712 59.336 850.518 60.116 851.571 60.116C852.585 60.116 853.092 59.557 853.326 58.855Z" fill="#565656"/>
</svg>
